<svg width="228px" height="53px" viewBox="0 0 228 53" version="1.1" xmlns="http://www.w3.org/2000/svg" xmlns:xlink="http://www.w3.org/1999/xlink">
    <defs>
        <path d="M23.7049,1.2029 C24.1495,3.2894 23.5634,5.5514 21.9423,7.1722 C20.7735,8.3406 19.2712,8.9712 17.7417,9.0655 C18.8787,11.4808 18.4498,14.4501 16.4537,16.4462 C14.4577,18.4422 11.4884,18.8711 9.0734,17.7342 C8.9787,19.2637 8.3485,20.7659 7.1798,21.9351 C5.5586,23.5558 3.297,24.142 1.2105,23.6973 C0.2008,31.456 2.6741,39.5819 8.6345,45.5423 C18.8285,55.7363 35.3559,55.7363 45.5499,45.5423 C55.7439,35.3487 55.7439,18.8209 45.5499,8.6273 C40.4535,3.5309 33.7735,0.9833 27.0939,0.9833 C25.9612,0.9833 24.8296,1.0565 23.7049,1.2029 Z" id="path-1"></path>
        <linearGradient x1="18.3034643%" y1="89.0162725%" x2="89.0164466%" y2="18.303403%" id="linearGradient-3">
            <stop stop-color="#E74F23" offset="0%"></stop>
            <stop stop-color="#F18A20" offset="100%"></stop>
        </linearGradient>
        <path d="M0.2794,4.2595 C0.2794,6.4601 2.0661,8.2467 4.2669,8.2467 C6.4676,8.2467 8.2543,6.4601 8.2543,4.2595 C8.2543,2.0588 6.4676,0.2722 4.2669,0.2722 C2.0661,0.2722 0.2794,2.0588 0.2794,4.2595 Z" id="path-4"></path>
        <linearGradient x1="-183.273144%" y1="283.259563%" x2="264.519304%" y2="-164.510425%" id="linearGradient-6">
            <stop stop-color="#E74F23" offset="0%"></stop>
            <stop stop-color="#F18A20" offset="100%"></stop>
        </linearGradient>
        <path d="M0.9017,3.5581 C0.9017,4.9902 2.0645,6.1529 3.4967,6.1529 C4.9289,6.1529 6.0917,4.9902 6.0917,3.5581 C6.0917,2.126 4.9289,0.9633 3.4967,0.9633 C2.0645,0.9633 0.9017,2.126 0.9017,3.5581 Z" id="path-7"></path>
        <linearGradient x1="-452.287669%" y1="552.254159%" x2="235.785549%" y2="-135.766028%" id="linearGradient-9">
            <stop stop-color="#E74F23" offset="0%"></stop>
            <stop stop-color="#F18A20" offset="100%"></stop>
        </linearGradient>
        <path d="M0.6872,3.1976 C0.6872,4.6297 1.8499,5.7924 3.282,5.7924 C4.7141,5.7924 5.8768,4.6297 5.8768,3.1976 C5.8768,1.7655 4.7141,0.6028 3.282,0.6028 C1.8499,0.6028 0.6872,1.7655 0.6872,3.1976 Z" id="path-10"></path>
        <linearGradient x1="-164.694389%" y1="264.692847%" x2="523.431864%" y2="-423.433405%" id="linearGradient-12">
            <stop stop-color="#E74F23" offset="0%"></stop>
            <stop stop-color="#F18A20" offset="100%"></stop>
        </linearGradient>
    </defs>
    <g id="home" stroke="none" stroke-width="1" fill="none" fill-rule="evenodd">
        <g id="Desktop-HD" transform="translate(-209.000000, -55.000000)">
            <g id="Group-57" transform="translate(209.000000, 54.000000)">
                <g id="Group-3" transform="translate(0.000000, 0.007400)">
                    <mask id="mask-2" fill="white">
                        <use xlink:href="#path-1"></use>
                    </mask>
                    <g id="Clip-2"></g>
                    <path d="M23.7049,1.2029 C24.1495,3.2894 23.5634,5.5514 21.9423,7.1722 C20.7735,8.3406 19.2712,8.9712 17.7417,9.0655 C18.8787,11.4808 18.4498,14.4501 16.4537,16.4462 C14.4577,18.4422 11.4884,18.8711 9.0734,17.7342 C8.9787,19.2637 8.3485,20.7659 7.1798,21.9351 C5.5586,23.5558 3.297,24.142 1.2105,23.6973 C0.2008,31.456 2.6741,39.5819 8.6345,45.5423 C18.8285,55.7363 35.3559,55.7363 45.5499,45.5423 C55.7439,35.3487 55.7439,18.8209 45.5499,8.6273 C40.4535,3.5309 33.7735,0.9833 27.0939,0.9833 C25.9612,0.9833 24.8296,1.0565 23.7049,1.2029 Z" id="Fill-1" fill="url(#linearGradient-3)" mask="url(#mask-2)"></path>
                </g>
                <g id="Group-6" transform="translate(7.000000, 7.007400)">
                    <mask id="mask-5" fill="white">
                        <use xlink:href="#path-4"></use>
                    </mask>
                    <g id="Clip-5"></g>
                    <path d="M0.2794,4.2595 C0.2794,6.4601 2.0661,8.2467 4.2669,8.2467 C6.4676,8.2467 8.2543,6.4601 8.2543,4.2595 C8.2543,2.0588 6.4676,0.2722 4.2669,0.2722 C2.0661,0.2722 0.2794,2.0588 0.2794,4.2595 Z" id="Fill-4" fill="url(#linearGradient-6)" mask="url(#mask-5)"></path>
                </g>
                <g id="Group-9" transform="translate(15.000000, 0.007400)">
                    <mask id="mask-8" fill="white">
                        <use xlink:href="#path-7"></use>
                    </mask>
                    <g id="Clip-8"></g>
                    <path d="M0.9017,3.5581 C0.9017,4.9902 2.0645,6.1529 3.4967,6.1529 C4.9289,6.1529 6.0917,4.9902 6.0917,3.5581 C6.0917,2.126 4.9289,0.9633 3.4967,0.9633 C2.0645,0.9633 0.9017,2.126 0.9017,3.5581 Z" id="Fill-7" fill="url(#linearGradient-9)" mask="url(#mask-8)"></path>
                </g>
                <g id="Group-12" transform="translate(0.000000, 15.007400)">
                    <mask id="mask-11" fill="white">
                        <use xlink:href="#path-10"></use>
                    </mask>
                    <g id="Clip-11"></g>
                    <path d="M0.6872,3.1976 C0.6872,4.6297 1.8499,5.7924 3.282,5.7924 C4.7141,5.7924 5.8768,4.6297 5.8768,3.1976 C5.8768,1.7655 4.7141,0.6028 3.282,0.6028 C1.8499,0.6028 0.6872,1.7655 0.6872,3.1976 Z" id="Fill-10" fill="url(#linearGradient-12)" mask="url(#mask-11)"></path>
                </g>
                <path d="M38.1466,14.7165 C37.9177,14.7165 37.6946,14.7403 37.4796,14.7859 C36.8705,14.9036 36.2889,15.1984 35.8174,15.6699 L26.9368,24.5502 L19.5081,17.1212 C18.4536,19.642 16.1386,21.3781 12.5177,21.155 L12.5177,36.2587 C12.5177,38.0362 13.9582,39.4776 15.7361,39.4776 C17.5137,39.4776 18.9546,38.0362 18.9546,36.2587 L18.9546,25.6714 L22.3854,29.1019 L26.9368,33.6536 L31.4888,29.1019 L34.9281,25.663 L34.9281,36.2924 C34.9281,38.07 36.3691,39.5113 38.1466,39.5113 C39.9241,39.5113 41.365,38.07 41.365,36.2924 L41.365,17.935 C41.365,16.1575 39.9241,14.7165 38.1466,14.7165" id="Fill-13" fill="#FFFFFF"></path>
                <polygon id="Fill-14" fill="#FFF" points="92.7025 30.4848 88.0856 30.4848 88.0856 20.8471 83.036 30.4848 80.0928 30.4848 75.0144 20.7892 75.0144 30.4848 70.3975 30.4848 70.3975 11.1514 75.0719 11.1514 81.5644 23.1267 88.0565 11.1514 92.7025 11.1514"></polygon>
                <path d="M105.569,25.9403 C106.262,25.238 106.608,24.3387 106.608,23.2424 C106.608,22.146 106.257,21.2467 105.555,20.5445 C104.853,19.8426 104.04,19.4907 103.117,19.4907 C102.155,19.4907 101.318,19.8426 100.607,20.5445 C99.894,21.2467 99.539,22.146 99.539,23.2424 C99.539,24.3387 99.89,25.238 100.592,25.9403 C101.294,26.6421 102.135,26.9933 103.117,26.9933 C104.059,26.9933 104.877,26.6421 105.569,25.9403 M108.744,17.7595 C110.282,19.1832 111.052,21.0106 111.052,23.2424 C111.052,25.4929 110.282,27.3302 108.744,28.7539 C107.205,30.1772 105.329,30.8887 103.117,30.8887 C100.866,30.8887 98.966,30.1772 97.418,28.7539 C95.869,27.3302 95.095,25.4929 95.095,23.2424 C95.095,21.0106 95.869,19.1832 97.418,17.7595 C98.966,16.3362 100.866,15.6248 103.117,15.6248 C105.329,15.6248 107.205,16.3362 108.744,17.7595" id="Fill-15" fill="#FFF"></path>
                <path d="M124.122,25.9541 C124.776,25.2622 125.103,24.3583 125.103,23.2424 C125.103,22.1457 124.776,21.2468 124.122,20.5445 C123.467,19.8426 122.63,19.4907 121.611,19.4907 C120.649,19.4907 119.817,19.8468 119.115,20.5587 C118.413,21.2705 118.062,22.1652 118.062,23.2424 C118.062,24.3387 118.413,25.238 119.115,25.9403 C119.817,26.6422 120.649,26.9933 121.611,26.9933 C122.63,26.9933 123.467,26.6472 124.122,25.9541 M127.57,17.7308 C128.945,19.1741 129.632,21.0106 129.632,23.2424 C129.632,25.4929 128.945,27.3349 127.57,28.7678 C126.194,30.201 124.525,30.9171 122.563,30.9171 C120.736,30.9171 119.235,30.3885 118.062,29.3309 L118.062,30.4847 L113.445,30.4847 L113.445,9.7088 L118.062,9.7088 L118.062,17.1539 C119.235,16.0955 120.736,15.5665 122.563,15.5665 C124.525,15.5665 126.194,16.288 127.57,17.7308" id="Fill-16" fill="#FFF"></path>
                <path d="M132.257,15.9997 L136.874,15.9997 L136.874,30.4847 L132.257,30.4847 L132.257,15.9997 Z M136.484,9.8821 C136.994,10.4015 137.249,11.0171 137.249,11.729 C137.249,12.4604 136.994,13.0706 136.484,13.5613 C135.974,14.0516 135.335,14.2969 134.565,14.2969 C133.796,14.2969 133.161,14.0516 132.661,13.5613 C132.161,13.0706 131.911,12.4604 131.911,11.729 C131.911,10.998 132.161,10.3773 132.661,9.8679 C133.161,9.3577 133.796,9.1031 134.565,9.1031 C135.335,9.1031 135.974,9.3634 136.484,9.8821 L136.484,9.8821 Z" id="Fill-17" fill="#FFF"></path>
                <path d="M145.298,19.9241 C144.721,20.3277 144.327,20.8855 144.115,21.5973 L150.088,21.5973 C149.877,20.8471 149.511,20.2798 148.992,19.8953 C148.472,19.5101 147.866,19.318 147.174,19.318 C146.5,19.318 145.875,19.52 145.298,19.9241 L145.298,19.9241 Z M154.647,24.4252 L144.028,24.4252 C144.221,25.2907 144.596,25.9735 145.154,26.4737 C145.712,26.974 146.376,27.2239 147.145,27.2239 C148.588,27.2239 149.617,26.6661 150.232,25.5506 L154.33,26.3875 C153.714,27.8878 152.786,29.0179 151.545,29.778 C150.305,30.5374 148.838,30.9173 147.145,30.9173 C145.01,30.9173 143.202,30.2012 141.72,28.7676 C140.239,27.3347 139.499,25.4928 139.499,23.2422 C139.499,21.0104 140.239,19.1739 141.72,17.7306 C143.202,16.2882 145.019,15.5667 147.174,15.5667 C149.27,15.5667 151.031,16.2686 152.454,17.6735 C153.878,19.0777 154.609,20.9338 154.647,23.2422 L154.647,24.4252 Z" id="Fill-18" fill="#FFF"></path>
                <polygon id="Fill-19" fill="#FFF" points="165.293 15.3072 165.293 30.4849 160.561 30.4849 160.561 15.3072 154.3 15.3072 154.3 11.1515 171.555 11.1515 171.555 15.3072"></polygon>
                <path d="M183.874,15.9129 L183.672,20.5298 L182.835,20.5298 C179.507,20.5298 177.843,22.3384 177.843,25.954 L177.843,30.485 L173.226,30.485 L173.226,16 L177.843,16 L177.843,18.7699 C179.036,16.7881 180.7,15.7972 182.835,15.7972 C183.22,15.7972 183.566,15.8363 183.874,15.9129" id="Fill-20" fill="#FFF"></path>
                <path d="M195.314,25.9403 C196.016,25.238 196.367,24.3387 196.367,23.2424 C196.367,22.1652 196.016,21.2705 195.314,20.5586 C194.611,19.8468 193.78,19.4907 192.818,19.4907 C191.798,19.4907 190.962,19.8426 190.308,20.5445 C189.653,21.2467 189.326,22.146 189.326,23.2424 C189.326,24.3582 189.653,25.2621 190.308,25.9541 C190.962,26.6471 191.798,26.9933 192.818,26.9933 C193.78,26.9933 194.611,26.6421 195.314,25.9403 L195.314,25.9403 Z M200.984,30.4847 L196.367,30.4847 L196.367,29.3308 C195.194,30.3885 193.693,30.9171 191.866,30.9171 C189.904,30.9171 188.235,30.201 186.859,28.7677 C185.484,27.3348 184.796,25.4929 184.796,23.2424 C184.796,21.0106 185.484,19.174 186.859,17.7308 C188.235,16.2879 189.904,15.5665 191.866,15.5665 C193.693,15.5665 195.194,16.0955 196.367,17.1539 L196.367,15.9997 L200.984,15.9997 L200.984,30.4847 Z" id="Fill-21" fill="#FFF"></path>
                <path d="M204.56,15.9997 L209.177,15.9997 L209.177,30.4847 L204.56,30.4847 L204.56,15.9997 Z M208.787,9.8821 C209.297,10.4015 209.553,11.0171 209.553,11.729 C209.553,12.4604 209.297,13.0706 208.787,13.5613 C208.278,14.0516 207.638,14.2969 206.869,14.2969 C206.099,14.2969 205.464,14.0516 204.964,13.5613 C204.464,13.0706 204.214,12.4604 204.214,11.729 C204.214,10.998 204.464,10.3773 204.964,9.8679 C205.464,9.3577 206.099,9.1031 206.869,9.1031 C207.638,9.1031 208.278,9.3634 208.787,9.8821 L208.787,9.8821 Z" id="Fill-22" fill="#FFF"></path>
                <path d="M225.898,17.2261 C226.927,18.332 227.441,19.7891 227.441,21.5973 L227.441,30.4849 L222.854,30.4849 L222.854,22.5782 C222.854,21.7318 222.623,21.0445 222.161,20.5155 C221.699,19.9861 221.103,19.722 220.372,19.722 C219.429,19.722 218.693,20.0536 218.165,20.7175 C217.635,21.3811 217.371,22.3958 217.371,23.762 L217.371,30.4849 L212.754,30.4849 L212.754,15.9998 L217.371,15.9998 L217.371,17.3844 C218.525,16.1731 220.006,15.5667 221.814,15.5667 C223.508,15.5667 224.869,16.1194 225.898,17.2261" id="Fill-23" fill="#FFF"></path>
                <path d="M74.4227,42.2072 C74.7462,41.9714 74.9689,41.6253 75.0893,41.1699 L75.9453,41.3512 C75.7969,41.9875 75.4788,42.4866 74.99,42.8493 C74.5024,43.2111 73.9286,43.3925 73.2708,43.3925 C72.4688,43.3925 71.7899,43.1153 71.2333,42.561 C70.6764,42.0067 70.3977,41.3263 70.3977,40.5201 C70.3977,39.7186 70.6764,39.0393 71.2333,38.4823 C71.7899,37.9254 72.4688,37.6471 73.2708,37.6471 C73.9232,37.6471 74.4936,37.8253 74.982,38.1822 C75.4707,38.5391 75.7919,39.019 75.9453,39.6224 L75.0893,39.8692 C74.9689,39.4142 74.7462,39.0685 74.4227,38.8323 C74.0988,38.5966 73.715,38.4781 73.2708,38.4781 C72.7111,38.4781 72.24,38.6744 71.8586,39.0669 C71.4771,39.4595 71.2866,39.9436 71.2866,40.5201 C71.2866,41.0959 71.4771,41.5801 71.8586,41.9726 C72.24,42.3647 72.7111,42.561 73.2708,42.561 C73.715,42.561 74.0988,42.4429 74.4227,42.2072" id="Fill-24" fill="#FFF"></path>
                <path d="M80.451,39.5609 C80.7535,39.8818 80.9041,40.2973 80.9041,40.8079 L80.9041,43.277 L80.0393,43.277 L80.0393,40.9804 C80.0393,40.6458 79.9504,40.377 79.7721,40.1743 C79.5939,39.9707 79.3593,39.8695 79.0683,39.8695 C78.6896,39.8695 78.3921,39.9987 78.1756,40.2563 C77.9586,40.5139 77.8501,40.893 77.8501,41.3921 L77.8501,43.277 L76.9941,43.277 L76.9941,37.3506 L77.8501,37.3506 L77.8501,39.6966 C78.1959,39.2849 78.6678,39.0791 79.2661,39.0791 C79.7549,39.0791 80.1493,39.2397 80.451,39.5609" id="Fill-25" fill="#FFF"></path>
                <path d="M84.8414,42.2439 C85.1101,41.9836 85.2443,41.6474 85.2443,41.2361 C85.2443,40.824 85.1101,40.4882 84.8414,40.2275 C84.5719,39.9673 84.2595,39.8365 83.903,39.8365 C83.5185,39.8365 83.2007,39.9646 82.9481,40.2195 C82.6955,40.4744 82.5694,40.8137 82.5694,41.2361 C82.5694,41.6581 82.6955,41.997 82.9481,42.2523 C83.2007,42.5072 83.5185,42.6353 83.903,42.6353 C84.2595,42.6353 84.5719,42.5049 84.8414,42.2439 L84.8414,42.2439 Z M86.1006,43.277 L85.2443,43.277 L85.2443,42.8081 C84.8717,43.1976 84.3775,43.3923 83.7631,43.3923 C83.2088,43.3923 82.733,43.1907 82.3348,42.7874 C81.9369,42.3838 81.7383,41.8671 81.7383,41.2361 C81.7383,40.6101 81.938,40.0949 82.339,39.6886 C82.7396,39.2822 83.2141,39.0791 83.7631,39.0791 C84.3775,39.0791 84.8717,39.2742 85.2443,39.664 L85.2443,39.1945 L86.1006,39.1945 L86.1006,43.277 Z" id="Fill-26" fill="#FFF"></path>
                <path d="M90.8604,39.5609 C91.1628,39.8818 91.3135,40.2973 91.3135,40.8079 L91.3135,43.277 L90.4487,43.277 L90.4487,40.9804 C90.4487,40.6458 90.3597,40.377 90.1815,40.1743 C90.0032,39.9707 89.7686,39.8695 89.4777,39.8695 C89.0989,39.8695 88.8015,39.9987 88.5849,40.2563 C88.3679,40.5139 88.2594,40.893 88.2594,41.3921 L88.2594,43.277 L87.4035,43.277 L87.4035,39.1945 L88.2594,39.1945 L88.2594,39.6966 C88.6052,39.2849 89.0771,39.0791 89.6755,39.0791 C90.1642,39.0791 90.5587,39.2397 90.8604,39.5609" id="Fill-27" fill="#FFF"></path>
                <path d="M95.189,41.9478 C95.438,41.7147 95.564,41.4168 95.564,41.0546 C95.564,40.687 95.438,40.3884 95.189,40.1576 C94.939,39.9272 94.641,39.8118 94.296,39.8118 C93.9222,39.8118 93.6113,39.9261 93.3614,40.1534 C93.1122,40.3811 92.9877,40.6816 92.9877,41.0546 C92.9877,41.4222 93.1122,41.7216 93.3614,41.952 C93.6113,42.182 93.9222,42.2974 94.296,42.2974 C94.641,42.2974 94.939,42.1808 95.189,41.9478 L95.189,41.9478 Z M96.395,42.9145 C96.395,43.5187 96.204,43.9905 95.822,44.3306 C95.441,44.671 94.927,44.8408 94.279,44.8408 C93.3024,44.8408 92.6392,44.5146 92.2877,43.8614 L92.9877,43.3431 C93.1464,43.5953 93.3231,43.7789 93.5182,43.8943 C93.7125,44.0097 93.9667,44.0672 94.279,44.0672 C94.669,44.0672 94.981,43.953 95.214,43.7257 C95.447,43.498 95.564,43.1863 95.564,42.7915 L95.564,42.5281 C95.24,42.8681 94.77,43.0387 94.156,43.0387 C93.6236,43.0387 93.1571,42.8467 92.7569,42.4622 C92.3563,42.0781 92.1558,41.6089 92.1558,41.0546 C92.1558,40.5007 92.3548,40.0342 92.7531,39.6558 C93.1506,39.2771 93.6182,39.0877 94.156,39.0877 C94.77,39.0877 95.24,39.2575 95.564,39.5979 L95.564,39.1943 L96.395,39.1943 L96.395,42.9145 Z" id="Fill-28" fill="#FFF"></path>
                <path d="M98.669,40.1 C98.428,40.2755 98.277,40.5201 98.216,40.8325 L100.619,40.8325 C100.554,40.5086 100.417,40.2617 100.208,40.0919 C100,39.9217 99.75,39.8366 99.459,39.8366 C99.174,39.8366 98.911,39.9244 98.669,40.1 L98.669,40.1 Z M101.5,41.4416 L98.191,41.4416 C98.23,41.8093 98.367,42.1029 98.603,42.3225 C98.839,42.5418 99.114,42.6514 99.426,42.6514 C99.992,42.6514 100.392,42.4153 100.628,41.9438 L101.393,42.1083 C101.229,42.5307 100.975,42.8504 100.632,43.0674 C100.289,43.2839 99.887,43.3924 99.426,43.3924 C98.856,43.3924 98.366,43.1916 97.957,42.7914 C97.548,42.3908 97.344,41.8752 97.344,41.2438 C97.344,40.6075 97.548,40.0877 97.957,39.6841 C98.366,39.2808 98.867,39.0792 99.459,39.0792 C100.013,39.0792 100.487,39.2727 100.879,39.6599 C101.271,40.0463 101.478,40.5416 101.5,41.1453 L101.5,41.4416 Z" id="Fill-29" fill="#FFF"></path>
                <path d="M107.076,42.5198 C107.367,42.5198 107.595,42.4431 107.759,42.2894 C107.924,42.1357 108.007,41.9329 108.007,41.6806 C108.007,41.4334 107.923,41.2341 107.755,41.0834 C107.588,40.9324 107.37,40.8572 107.101,40.8572 L105.364,40.8572 L105.364,42.5198 L107.076,42.5198 Z M105.364,40.1492 L107.011,40.1492 C107.274,40.1492 107.486,40.071 107.648,39.9146 C107.81,39.7586 107.891,39.5543 107.891,39.3013 C107.891,39.0713 107.81,38.8835 107.648,38.7378 C107.486,38.5925 107.277,38.5197 107.019,38.5197 L105.364,38.5197 L105.364,40.1492 Z M107.874,40.4701 C108.16,40.503 108.404,40.6349 108.607,40.8657 C108.81,41.0957 108.912,41.3947 108.912,41.7627 C108.912,42.2238 108.762,42.5914 108.463,42.8655 C108.164,43.14 107.732,43.2772 107.167,43.2772 L104.483,43.2772 L104.483,37.7626 L107.109,37.7626 C107.608,37.7626 108.007,37.8979 108.302,38.1697 C108.599,38.4415 108.747,38.8022 108.747,39.2522 C108.747,39.5758 108.658,39.8445 108.48,40.0588 C108.301,40.273 108.099,40.3992 107.874,40.4371 L107.874,40.4701 Z" id="Fill-30" fill="#FFF"></path>
                <path d="M110.922,40.1 C110.681,40.2755 110.53,40.5201 110.47,40.8325 L112.873,40.8325 C112.808,40.5086 112.67,40.2617 112.462,40.0919 C112.253,39.9217 112.003,39.8366 111.713,39.8366 C111.428,39.8366 111.164,39.9244 110.922,40.1 L110.922,40.1 Z M113.754,41.4416 L110.445,41.4416 C110.483,41.8093 110.621,42.1029 110.857,42.3225 C111.093,42.5418 111.368,42.6514 111.68,42.6514 C112.245,42.6514 112.646,42.4153 112.881,41.9438 L113.647,42.1083 C113.482,42.5307 113.229,42.8504 112.886,43.0674 C112.543,43.2839 112.141,43.3924 111.68,43.3924 C111.11,43.3924 110.619,43.1916 110.211,42.7914 C109.802,42.3908 109.597,41.8752 109.597,41.2438 C109.597,40.6075 109.802,40.0877 110.211,39.6841 C110.619,39.2808 111.12,39.0792 111.713,39.0792 C112.267,39.0792 112.741,39.2727 113.133,39.6599 C113.525,40.0463 113.732,40.5416 113.754,41.1453 L113.754,41.4416 Z" id="Fill-31" fill="#FFF"></path>
                <path d="M118.16,39.5609 C118.462,39.8818 118.613,40.2973 118.613,40.8079 L118.613,43.277 L117.748,43.277 L117.748,40.9804 C117.748,40.6458 117.659,40.377 117.481,40.1743 C117.303,39.9707 117.068,39.8695 116.777,39.8695 C116.398,39.8695 116.101,39.9987 115.884,40.2563 C115.667,40.5139 115.559,40.893 115.559,41.3921 L115.559,43.277 L114.703,43.277 L114.703,37.3506 L115.559,37.3506 L115.559,39.6966 C115.905,39.2849 116.376,39.0791 116.975,39.0791 C117.464,39.0791 117.858,39.2397 118.16,39.5609" id="Fill-32" fill="#FFF"></path>
                <path d="M122.55,42.2439 C122.819,41.9836 122.953,41.6474 122.953,41.2361 C122.953,40.824 122.819,40.4882 122.55,40.2275 C122.281,39.9673 121.968,39.8365 121.612,39.8365 C121.227,39.8365 120.909,39.9646 120.657,40.2195 C120.404,40.4744 120.278,40.8137 120.278,41.2361 C120.278,41.6581 120.404,41.997 120.657,42.2523 C120.909,42.5072 121.227,42.6353 121.612,42.6353 C121.968,42.6353 122.281,42.5049 122.55,42.2439 L122.55,42.2439 Z M123.809,43.277 L122.953,43.277 L122.953,42.8081 C122.58,43.1976 122.087,43.3923 121.472,43.3923 C120.917,43.3923 120.442,43.1907 120.043,42.7874 C119.646,42.3838 119.447,41.8671 119.447,41.2361 C119.447,40.6101 119.647,40.0949 120.048,39.6886 C120.449,39.2822 120.923,39.0791 121.472,39.0791 C122.087,39.0791 122.58,39.2742 122.953,39.664 L122.953,39.1945 L123.809,39.1945 L123.809,43.277 Z" id="Fill-33" fill="#FFF"></path>
                <polygon id="Fill-34" fill="#FFF" points="127.244 43.2771 126.331 43.2771 124.577 39.1861 125.508 39.1861 126.792 42.2563 128.075 39.1861 129.005 39.1861"></polygon>
                <path d="M129.831,39.1944 L130.687,39.1944 L130.687,43.2769 L129.831,43.2769 L129.831,39.1944 Z M130.646,37.5898 C130.751,37.6937 130.803,37.8202 130.803,37.9681 C130.803,38.1219 130.752,38.248 130.65,38.3469 C130.549,38.4458 130.419,38.4948 130.259,38.4948 C130.101,38.4948 129.968,38.4458 129.865,38.3469 C129.76,38.248 129.708,38.1219 129.708,37.9681 C129.708,37.8202 129.76,37.6937 129.865,37.5898 C129.968,37.4851 130.101,37.4334 130.259,37.4334 C130.413,37.4334 130.542,37.4851 130.646,37.5898 L130.646,37.5898 Z" id="Fill-35" fill="#FFF"></path>
                <path d="M134.837,42.2439 C135.106,41.9836 135.24,41.6474 135.24,41.2361 C135.24,40.824 135.106,40.4882 134.837,40.2275 C134.568,39.9673 134.253,39.8365 133.891,39.8365 C133.517,39.8365 133.198,39.9673 132.931,40.2275 C132.665,40.4882 132.533,40.824 132.533,41.2361 C132.533,41.6474 132.665,41.9836 132.931,42.2439 C133.198,42.5049 133.517,42.6353 133.891,42.6353 C134.253,42.6353 134.568,42.5049 134.837,42.2439 M135.442,39.7008 C135.862,40.0984 136.072,40.6101 136.072,41.2361 C136.072,41.8613 135.861,42.3742 135.438,42.7752 C135.016,43.1758 134.5,43.3759 133.891,43.3759 C133.276,43.3759 132.756,43.1758 132.331,42.7752 C131.905,42.3742 131.693,41.8613 131.693,41.2361 C131.693,40.6101 131.905,40.0984 132.331,39.7008 C132.756,39.3029 133.276,39.1044 133.891,39.1044 C134.505,39.1044 135.022,39.3029 135.442,39.7008" id="Fill-36" fill="#FFF"></path>
                <path d="M140.832,43.2771 L139.976,43.2771 L139.976,42.7749 C139.63,43.1866 139.161,43.3925 138.568,43.3925 C138.074,43.3925 137.678,43.2318 137.379,42.9106 C137.08,42.5898 136.93,42.1712 136.93,41.6556 L136.93,39.1946 L137.786,39.1946 L137.786,41.4823 C137.786,41.8173 137.875,42.0876 138.054,42.2938 C138.232,42.4993 138.469,42.602 138.766,42.602 C139.144,42.602 139.441,42.4728 139.655,42.2149 C139.868,41.9576 139.976,41.5785 139.976,41.0798 L139.976,39.1946 L140.832,39.1946 L140.832,43.2771 Z" id="Fill-37" fill="#FFF"></path>
                <path d="M144.834,39.1783 L144.776,40.001 C144.733,39.996 144.653,39.9933 144.538,39.9933 C144.033,39.9933 143.649,40.1562 143.386,40.4824 C143.122,40.809 142.99,41.2606 142.99,41.8371 L142.99,43.2769 L142.135,43.2769 L142.135,39.1944 L142.99,39.1944 L142.99,40.0669 C143.364,39.4528 143.882,39.1454 144.546,39.1454 C144.667,39.1454 144.763,39.1557 144.834,39.1783" id="Fill-38" fill="#FFF"></path>
                <path d="M145.68,42.4168 C145.782,42.5184 145.833,42.6407 145.833,42.7829 C145.833,42.9313 145.782,43.0562 145.68,43.1578 C145.578,43.259 145.45,43.31 145.297,43.31 C145.144,43.31 145.015,43.259 144.91,43.1578 C144.806,43.0562 144.754,42.9313 144.754,42.7829 C144.754,42.6407 144.806,42.5184 144.91,42.4168 C145.015,42.3153 145.144,42.265 145.297,42.265 C145.45,42.265 145.578,42.3153 145.68,42.4168" id="Fill-39" fill="#FFF"></path>
                <path d="M151.48,42.5198 C151.771,42.5198 151.999,42.4431 152.163,42.2894 C152.328,42.1357 152.411,41.9329 152.411,41.6806 C152.411,41.4334 152.327,41.2341 152.159,41.0834 C151.992,40.9324 151.774,40.8572 151.505,40.8572 L149.768,40.8572 L149.768,42.5198 L151.48,42.5198 Z M149.768,40.1492 L151.415,40.1492 C151.678,40.1492 151.89,40.071 152.052,39.9146 C152.214,39.7586 152.295,39.5543 152.295,39.3013 C152.295,39.0713 152.214,38.8835 152.052,38.7378 C151.89,38.5925 151.681,38.5197 151.423,38.5197 L149.768,38.5197 L149.768,40.1492 Z M152.279,40.4701 C152.564,40.503 152.808,40.6349 153.011,40.8657 C153.214,41.0957 153.316,41.3947 153.316,41.7627 C153.316,42.2238 153.166,42.5914 152.867,42.8655 C152.568,43.14 152.136,43.2772 151.571,43.2772 L148.887,43.2772 L148.887,37.7626 L151.513,37.7626 C152.012,37.7626 152.411,37.8979 152.706,38.1697 C153.003,38.4415 153.151,38.8022 153.151,39.2522 C153.151,39.5758 153.062,39.8445 152.884,40.0588 C152.705,40.273 152.504,40.3992 152.279,40.4371 L152.279,40.4701 Z" id="Fill-40" fill="#FFF"></path>
                <path d="M157.147,42.2439 C157.415,41.9836 157.55,41.6474 157.55,41.2361 C157.55,40.824 157.415,40.4882 157.147,40.2275 C156.877,39.9673 156.562,39.8365 156.199,39.8365 C155.827,39.8365 155.508,39.9673 155.241,40.2275 C154.974,40.4882 154.842,40.824 154.842,41.2361 C154.842,41.6474 154.974,41.9836 155.241,42.2439 C155.508,42.5049 155.827,42.6353 156.199,42.6353 C156.562,42.6353 156.877,42.5049 157.147,42.2439 M157.751,39.7008 C158.171,40.0984 158.381,40.6101 158.381,41.2361 C158.381,41.8613 158.17,42.3742 157.747,42.7752 C157.325,43.1758 156.809,43.3759 156.199,43.3759 C155.585,43.3759 155.065,43.1758 154.64,42.7752 C154.215,42.3742 154.002,41.8613 154.002,41.2361 C154.002,40.6101 154.215,40.0984 154.64,39.7008 C155.065,39.3029 155.585,39.1044 156.199,39.1044 C156.814,39.1044 157.331,39.3029 157.751,39.7008" id="Fill-41" fill="#FFF"></path>
                <path d="M162.129,42.2439 C162.397,41.9836 162.532,41.6474 162.532,41.2361 C162.532,40.824 162.397,40.4882 162.129,40.2275 C161.859,39.9673 161.545,39.8365 161.182,39.8365 C160.809,39.8365 160.49,39.9673 160.223,40.2275 C159.957,40.4882 159.824,40.824 159.824,41.2361 C159.824,41.6474 159.957,41.9836 160.223,42.2439 C160.49,42.5049 160.809,42.6353 161.182,42.6353 C161.545,42.6353 161.859,42.5049 162.129,42.2439 M162.733,39.7008 C163.153,40.0984 163.363,40.6101 163.363,41.2361 C163.363,41.8613 163.152,42.3742 162.729,42.7752 C162.307,43.1758 161.791,43.3759 161.182,43.3759 C160.567,43.3759 160.047,43.1758 159.622,42.7752 C159.197,42.3742 158.984,41.8613 158.984,41.2361 C158.984,40.6101 159.197,40.0984 159.622,39.7008 C160.047,39.3029 160.567,39.1044 161.182,39.1044 C161.796,39.1044 162.314,39.3029 162.733,39.7008" id="Fill-42" fill="#FFF"></path>
                <path d="M164.831,42.0013 C164.859,42.2321 164.964,42.4046 165.147,42.52 C165.332,42.635 165.566,42.6928 165.852,42.6928 C166.098,42.6928 166.295,42.6434 166.44,42.5445 C166.585,42.4456 166.658,42.3137 166.658,42.1497 C166.658,41.9078 166.474,41.746 166.106,41.664 L165.218,41.4823 C164.477,41.3182 164.106,40.9479 164.106,40.3714 C164.106,39.9873 164.253,39.6764 164.547,39.4376 C164.84,39.1984 165.231,39.0792 165.72,39.0792 C166.181,39.0792 166.564,39.1876 166.868,39.4046 C167.173,39.6212 167.363,39.9052 167.44,40.2564 L166.625,40.4289 C166.592,40.2261 166.493,40.0639 166.329,39.9436 C166.164,39.8228 165.953,39.7626 165.695,39.7626 C165.459,39.7626 165.279,39.8132 165.156,39.9148 C165.033,40.016 164.97,40.1437 164.97,40.2974 C164.97,40.5278 165.135,40.6819 165.464,40.7585 L166.436,40.9724 C166.771,41.0437 167.031,41.1741 167.218,41.3634 C167.405,41.5524 167.498,41.7897 167.498,42.0753 C167.498,42.492 167.341,42.8163 167.029,43.0467 C166.716,43.277 166.299,43.3924 165.777,43.3924 C165.295,43.3924 164.886,43.2893 164.551,43.0835 C164.216,42.878 164.024,42.5775 163.975,42.1822 L164.831,42.0013 Z" id="Fill-43" fill="#FFF"></path>
                <path d="M171.186,43.0798 C170.835,43.288 170.498,43.3922 170.174,43.3922 C169.719,43.3922 169.36,43.2646 169.096,43.0097 C168.833,42.754 168.701,42.3802 168.701,41.8861 L168.701,39.9024 L167.82,39.9024 L167.82,39.1943 L168.701,39.1943 L168.701,37.927 L169.557,37.927 L169.557,39.1943 L170.956,39.1943 L170.956,39.9024 L169.557,39.9024 L169.557,41.8282 C169.557,42.0755 169.617,42.2633 169.738,42.3925 C169.859,42.5209 170.023,42.5857 170.231,42.5857 C170.467,42.5857 170.698,42.5117 170.923,42.3637 L171.186,43.0798 Z" id="Fill-44" fill="#FFF"></path>
                <path d="M176.399,40.5279 C176.739,40.5279 177.008,40.4389 177.206,40.2607 C177.403,40.0824 177.502,39.8421 177.502,39.5404 C177.502,39.2494 177.403,39.0137 177.206,38.8324 C177.008,38.6511 176.739,38.561 176.399,38.561 L174.794,38.561 L174.794,40.5279 L176.399,40.5279 Z M176.399,37.7625 C177.003,37.7625 177.484,37.9254 177.844,38.252 C178.203,38.5786 178.383,39.0079 178.383,39.5404 C178.383,40.0778 178.203,40.5114 177.844,40.8403 C177.484,41.1699 177.003,41.3344 176.399,41.3344 L174.794,41.3344 L174.794,43.2771 L173.914,43.2771 L173.914,37.7625 L176.399,37.7625 Z" id="Fill-45" fill="#FFF"></path>
                <path d="M180.304,40.1 C180.063,40.2755 179.912,40.5201 179.851,40.8325 L182.255,40.8325 C182.189,40.5086 182.052,40.2617 181.843,40.0919 C181.635,39.9217 181.385,39.8366 181.094,39.8366 C180.809,39.8366 180.546,39.9244 180.304,40.1 L180.304,40.1 Z M183.135,41.4416 L179.827,41.4416 C179.864,41.8093 180.002,42.1029 180.238,42.3225 C180.474,42.5418 180.749,42.6514 181.061,42.6514 C181.627,42.6514 182.027,42.4153 182.263,41.9438 L183.028,42.1083 C182.864,42.5307 182.61,42.8504 182.267,43.0674 C181.924,43.2839 181.522,43.3924 181.061,43.3924 C180.49,43.3924 180.001,43.1916 179.592,42.7914 C179.183,42.3908 178.979,41.8752 178.979,41.2438 C178.979,40.6075 179.183,40.0877 179.592,39.6841 C180.001,39.2808 180.502,39.0792 181.094,39.0792 C181.648,39.0792 182.122,39.2727 182.514,39.6599 C182.906,40.0463 183.113,40.5416 183.135,41.1453 L183.135,41.4416 Z" id="Fill-46" fill="#FFF"></path>
                <path d="M186.784,39.1783 L186.726,40.001 C186.683,39.996 186.603,39.9933 186.487,39.9933 C185.983,39.9933 185.599,40.1562 185.336,40.4824 C185.072,40.809 184.94,41.2606 184.94,41.8371 L184.94,43.2769 L184.084,43.2769 L184.084,39.1944 L184.94,39.1944 L184.94,40.0669 C185.313,39.4528 185.832,39.1454 186.496,39.1454 C186.617,39.1454 186.712,39.1557 186.784,39.1783" id="Fill-47" fill="#FFF"></path>
                <path d="M188.671,39.9023 L188.671,43.2772 L187.815,43.2772 L187.815,39.9023 L187.148,39.9023 L187.148,39.1943 L187.815,39.1943 L187.815,38.709 C187.815,38.2536 187.952,37.8929 188.226,37.6265 C188.501,37.3604 188.865,37.2274 189.321,37.2274 C189.562,37.2274 189.796,37.2769 190.021,37.3758 L189.815,38.0754 C189.672,38.0205 189.527,37.9929 189.379,37.9929 C189.165,37.9929 188.993,38.0562 188.864,38.1823 C188.735,38.3084 188.671,38.484 188.671,38.709 L188.671,39.1943 L190.029,39.1943 L190.029,39.9023 L188.671,39.9023 Z" id="Fill-48" fill="#FFF"></path>
                <path d="M193.388,42.2439 C193.657,41.9836 193.791,41.6474 193.791,41.2361 C193.791,40.824 193.657,40.4882 193.388,40.2275 C193.119,39.9673 192.804,39.8365 192.442,39.8365 C192.068,39.8365 191.749,39.9673 191.482,40.2275 C191.216,40.4882 191.084,40.824 191.084,41.2361 C191.084,41.6474 191.216,41.9836 191.482,42.2439 C191.749,42.5049 192.068,42.6353 192.442,42.6353 C192.804,42.6353 193.119,42.5049 193.388,42.2439 M193.993,39.7008 C194.413,40.0984 194.623,40.6101 194.623,41.2361 C194.623,41.8613 194.412,42.3742 193.989,42.7752 C193.567,43.1758 193.051,43.3759 192.442,43.3759 C191.827,43.3759 191.307,43.1758 190.882,42.7752 C190.456,42.3742 190.244,41.8613 190.244,41.2361 C190.244,40.6101 190.456,40.0984 190.882,39.7008 C191.307,39.3029 191.827,39.1044 192.442,39.1044 C193.056,39.1044 193.573,39.3029 193.993,39.7008" id="Fill-49" fill="#FFF"></path>
                <path d="M198.279,39.1783 L198.223,40.001 C198.178,39.996 198.098,39.9933 197.983,39.9933 C197.479,39.9933 197.095,40.1562 196.831,40.4824 C196.568,40.809 196.436,41.2606 196.436,41.8371 L196.436,43.2769 L195.58,43.2769 L195.58,39.1944 L196.436,39.1944 L196.436,40.0669 C196.809,39.4528 197.328,39.1454 197.992,39.1454 C198.113,39.1454 198.208,39.1557 198.279,39.1783" id="Fill-50" fill="#FFF"></path>
                <path d="M205.183,39.5235 C205.482,39.8202 205.632,40.2039 205.632,40.6762 L205.632,43.2771 L204.784,43.2771 L204.784,40.849 C204.784,40.5527 204.698,40.3154 204.525,40.1372 C204.352,39.9586 204.131,39.8692 203.862,39.8692 C203.522,39.8692 203.253,39.9873 203.055,40.2231 C202.858,40.4592 202.759,40.8023 202.759,41.2523 L202.759,43.2771 L201.903,43.2771 L201.903,40.849 C201.903,40.5527 201.817,40.3154 201.644,40.1372 C201.471,39.9586 201.25,39.8692 200.982,39.8692 C200.647,39.8692 200.382,39.9873 200.187,40.2231 C199.992,40.4592 199.895,40.8023 199.895,41.2523 L199.895,43.2771 L199.039,43.2771 L199.039,39.1946 L199.895,39.1946 L199.895,39.6557 C200.208,39.2712 200.644,39.0792 201.204,39.0792 C201.5,39.0792 201.767,39.1455 202.006,39.277 C202.245,39.4085 202.43,39.5925 202.562,39.8282 C202.919,39.3287 203.426,39.0792 204.085,39.0792 C204.518,39.0792 204.884,39.2275 205.183,39.5235" id="Fill-51" fill="#FFF"></path>
                <path d="M209.579,42.2439 C209.847,41.9836 209.982,41.6474 209.982,41.2361 C209.982,40.824 209.847,40.4882 209.579,40.2275 C209.309,39.9673 208.997,39.8365 208.64,39.8365 C208.256,39.8365 207.938,39.9646 207.685,40.2195 C207.433,40.4744 207.307,40.8137 207.307,41.2361 C207.307,41.6581 207.433,41.997 207.685,42.2523 C207.938,42.5072 208.256,42.6353 208.64,42.6353 C208.997,42.6353 209.309,42.5049 209.579,42.2439 L209.579,42.2439 Z M210.838,43.277 L209.982,43.277 L209.982,42.8081 C209.609,43.1976 209.115,43.3923 208.5,43.3923 C207.946,43.3923 207.47,43.1907 207.072,42.7874 C206.674,42.3838 206.476,41.8671 206.476,41.2361 C206.476,40.6101 206.675,40.0949 207.076,39.6886 C207.477,39.2822 207.952,39.0791 208.5,39.0791 C209.115,39.0791 209.609,39.2742 209.982,39.664 L209.982,39.1945 L210.838,39.1945 L210.838,43.277 Z" id="Fill-52" fill="#FFF"></path>
                <path d="M215.598,39.5609 C215.9,39.8818 216.051,40.2973 216.051,40.8079 L216.051,43.277 L215.186,43.277 L215.186,40.9804 C215.186,40.6458 215.097,40.377 214.919,40.1743 C214.741,39.9707 214.506,39.8695 214.215,39.8695 C213.836,39.8695 213.539,39.9987 213.322,40.2563 C213.105,40.5139 212.997,40.893 212.997,41.3921 L212.997,43.277 L212.141,43.277 L212.141,39.1945 L212.997,39.1945 L212.997,39.6966 C213.343,39.2849 213.814,39.0791 214.413,39.0791 C214.902,39.0791 215.296,39.2397 215.598,39.5609" id="Fill-53" fill="#FFF"></path>
                <path d="M220.252,41.746 L221.042,41.9519 C220.932,42.3854 220.692,42.7339 220.321,42.9972 C219.951,43.2606 219.527,43.3924 219.05,43.3924 C218.452,43.3924 217.943,43.1908 217.523,42.7875 C217.103,42.3839 216.893,41.8668 216.893,41.2362 C216.893,40.6102 217.103,40.0946 217.523,39.6887 C217.943,39.2823 218.452,39.0792 219.05,39.0792 C219.516,39.0792 219.933,39.2099 220.301,39.4702 C220.668,39.7312 220.916,40.0777 221.042,40.5113 L220.219,40.7501 C220.142,40.4595 219.999,40.2395 219.79,40.0919 C219.582,39.9436 219.335,39.8692 219.05,39.8692 C218.671,39.8692 218.357,39.9972 218.108,40.2522 C217.858,40.5078 217.733,40.8352 217.733,41.2362 C217.733,41.6475 217.856,41.9775 218.103,42.2275 C218.35,42.477 218.666,42.602 219.05,42.602 C219.659,42.602 220.059,42.3164 220.252,41.746" id="Fill-54" fill="#FFF"></path>
                <path d="M222.97,40.1 C222.729,40.2755 222.578,40.5201 222.517,40.8325 L224.921,40.8325 C224.855,40.5086 224.718,40.2617 224.509,40.0919 C224.301,39.9217 224.051,39.8366 223.76,39.8366 C223.475,39.8366 223.212,39.9244 222.97,40.1 L222.97,40.1 Z M225.801,41.4416 L222.493,41.4416 C222.531,41.8093 222.668,42.1029 222.904,42.3225 C223.14,42.5418 223.415,42.6514 223.727,42.6514 C224.293,42.6514 224.693,42.4153 224.929,41.9438 L225.695,42.1083 C225.53,42.5307 225.276,42.8504 224.933,43.0674 C224.591,43.2839 224.188,43.3924 223.727,43.3924 C223.157,43.3924 222.667,43.1916 222.258,42.7914 C221.849,42.3908 221.645,41.8752 221.645,41.2438 C221.645,40.6075 221.849,40.0877 222.258,39.6841 C222.667,39.2808 223.168,39.0792 223.76,39.0792 C224.314,39.0792 224.788,39.2727 225.18,39.6599 C225.572,40.0463 225.779,40.5416 225.801,41.1453 L225.801,41.4416 Z" id="Fill-55" fill="#FFF"></path>
                <path d="M227.289,42.4168 C227.391,42.5184 227.441,42.6407 227.441,42.7829 C227.441,42.9313 227.391,43.0562 227.289,43.1578 C227.188,43.259 227.06,43.31 226.906,43.31 C226.753,43.31 226.625,43.259 226.52,43.1578 C226.415,43.0562 226.363,42.9313 226.363,42.7829 C226.363,42.6407 226.415,42.5184 226.52,42.4168 C226.625,42.3153 226.753,42.265 226.906,42.265 C227.06,42.265 227.188,42.3153 227.289,42.4168" id="Fill-56" fill="#FFF"></path>
            </g>
        </g>
    </g>
</svg>